{"title":"Stargate.Universe.S02E01.720p.HDTV.x264-CTU.mkv","uid":5857811,"size":1173093060,"categoryP":"video","categoryS":"hd___tv_shows","magnet":"?xt=urn:btih:2688fbe6b9996c8c03e914b0009a93f0ec7cf6c8&amp;dn=Stargate.Universe.S02E01.720p.HDTV.x264-CTU.mkv&amp;tr=udp%3A%2F%2Ftracker.openbittorrent.com%3A80&amp;tr=udp%3A%2F%2Fopen.demonii.com%3A1337&amp;tr=udp%3A%2F%2Ftracker.coppersurfer.tk%3A6969&amp;tr=udp%3A%2F%2Fexodus.desync.com%3A6969","seeders":2,"leechers":1,"uploader":"Ametz","files":1,"time":1285868021,"description":"Same as on: &lt;a href=&quot;\nhttp://www.btmon.com/Other/Unsorted/Stargate.Universe.S02E01.720p.HDTV.x264-CTU.mkv.torrent.html&quot; rel=&quot;nofollow&quot; target=&quot;_NEW&quot;&gt;\nhttp://www.btmon.com/Other/Unsorted/Stargate.Universe.S02E01.720p.HDTV.x264-CTU.mkv.torrent.html&lt;/a&gt;\n\n(Since no one have uploaded it here yet.)\n\n\n\nMedia info:\n\n    * Duration: 00:42:20.25, start: 0.000000, bitrate: N/A\n    * Stream #0.0: Audio: ac3, 48000 Hz, 5:1\n    * Stream #0.1(eng): Video: h264, yuv420p, 1280x720 [PAR 1:1 DAR 16:9], 23.98 tb(r)","torrent":{"xt":"urn:btih:2688fbe6b9996c8c03e914b0009a93f0ec7cf6c8","amp;dn":"Stargate.Universe.S02E01.720p.HDTV.x264-CTU.mkv","amp;tr":["udp%3A%2F%2Ftracker.openbittorrent.com%3A80","udp%3A%2F%2Fopen.demonii.com%3A1337","udp%3A%2F%2Ftracker.coppersurfer.tk%3A6969","udp%3A%2F%2Fexodus.desync.com%3A6969"],"infoHash":"2688fbe6b9996c8c03e914b0009a93f0ec7cf6c8","infoHashBuffer":{"type":"Buffer","data":[38,136,251,230,185,153,108,140,3,233,20,176,0,154,147,240,236,124,246,200]},"announce":[],"urlList":[]}}